<?xml version="1.0" encoding="UTF-8"?>
<svg id="a" data-name="Layer 2" xmlns="http://www.w3.org/2000/svg" width="188.724" height="109.697" viewBox="0 0 188.724 109.697">
  <g id="b" data-name="Layer 1-2">
    <path d="M147.124,75.2l-23.89-25h-6.58l-9.95,24.04-8.73-24.04h-1.3l-9.12,24.04-9.37-24.04h-24.46v5.1h8.27v29.96h5.43v-29.96h6.91l11.96,29.96h2.5l8.43-22.29,8.09,22.29h2.5l13.08-31.14v31.14h5.43v-24.27l23.26,24.27h2.97v-35.06h-5.43v25ZM173.844,67.44v5.1h8.97c-.25,2.53-1.44,4.71-3.56,6.52-2.13,1.8-4.53,2.7-7.2,2.7-3.14,0-6.05-1.2-8.74-3.61-2.87-2.59-4.31-5.9-4.31-9.9s1.29-7.11,3.87-9.69c2.58-2.62,5.77-3.94,9.57-3.94,4.24,0,7.84,1.96,10.79,5.89l3.87-3.7c-2.25-2.58-4.54-4.44-6.87-5.59-2.44-1.15-5.06-1.72-7.87-1.72-5.23,0-9.68,1.83-13.33,5.48-3.65,3.63-5.47,8.06-5.47,13.28s1.79,9.49,5.38,13.14c3.59,3.63,7.9,5.45,12.93,5.45s9.4-1.88,12.74-5.64c1.48-1.68,2.52-3.48,3.15-5.41.64-2.08.96-4.47.96-7.18v-1.19h-14.86l-.02.01Z" fill="#D97706"/>
    <path d="M42.624,66.89c-.17-.09-.34-.17-.52-.26,3.26-2.16,4.87-6.53,3.8-10.29-1.07-3.76-4.73-6.63-8.64-6.76-1.67-.05-3.43.39-4.62,1.57-1.19,1.18-1.62,3.18-.71,4.58.89,1.37,2.97,1.78,4.31.84,1.34-.93,1.68-3.02.71-4.33,2.13-.05,4.24,1.27,5.11,3.22s.45,4.4-1.01,5.95c-2.26,2.39-5.99,2.26-9.26,2.66-5.52.67-10.86,3.5-14.04,8.06s-3.93,10.86-1.41,15.81c2.53,4.95,8.47,8.08,13.89,6.85s9.51-7.07,8.33-12.51c-.44-2.02-1.61-3.97-3.45-4.93s-4.36-.67-5.65.95c-1.29,1.62-.76,4.47,1.17,5.21s4.34-1.53,3.45-3.4c2.2,1.34,3.24,4.22,2.68,6.73-.55,2.52-2.53,4.6-4.91,5.59-4.6,1.9-10.39-.48-12.71-4.89s-1.19-10.22,2.28-13.79c3.48-3.57,8.95-4.87,13.8-3.71,7.15,1.71,13,8.67,12.86,16.02-.31,16.36-15.83,22.42-27.83,18.77-8.27-2.52-14.34-10.18-14.72-20.14-.33-8.77,3.22-15.87,9.27-21.85-13.73-14.22,6.3-21.86,13.63-19.35l.03-1.86.61-32.57c.33-.12.88-.36,1.19-.36,1.9,0,.27,2.34,2.45,2.61,1.36.16,2.23-1.2,2.28-2.12.05-1.52-.98-2.66-2.93-2.66-.7,0-1.89.36-2.95.84l.09-4.89c.34-.13.79-.31,1.06-.31,1.9,0,.27,2.34,2.45,2.61,1.36.16,2.23-1.2,2.28-2.12.05-1.52-.98-2.66-2.93-2.66-.67,0-1.8.33-2.82.79v-.79h-5.38l.74,38.63c-10.72,0-22.76,10.97-15.5,21.18.51.85,1.27,1.71,1.56,2.55.1,1.87-1.74,3.4-3.01,4.78-6.68,7.23-9.81,18.21-6.02,27.3,9.96,23.78,51.19,18.78,52.03-8.18.26-7.83-4.1-15.77-11.05-19.35l.01-.02Z" fill="#D97706"/>
  </g>
</svg>
