<?xml version="1.0" encoding="UTF-8"?>
<svg xmlns="http://www.w3.org/2000/svg" width="64" height="64" viewBox="-5 -5 60 115">
  <path d="M42.624,66.89c-.17-.09-.34-.17-.52-.26,3.26-2.16,4.87-6.53,3.8-10.29-1.07-3.76-4.73-6.63-8.64-6.76-1.67-.05-3.43.39-4.62,1.57-1.19,1.18-1.62,3.18-.71,4.58.89,1.37,2.97,1.78,4.31.84,1.34-.93,1.68-3.02.71-4.33,2.13-.05,4.24,1.27,5.11,3.22s.45,4.4-1.01,5.95c-2.26,2.39-5.99,2.26-9.26,2.66-5.52.67-10.86,3.5-14.04,8.06s-3.93,10.86-1.41,15.81c2.53,4.95,8.47,8.08,13.89,6.85s9.51-7.07,8.33-12.51c-.44-2.02-1.61-3.97-3.45-4.93s-4.36-.67-5.65.95c-1.29,1.62-.76,4.47,1.17,5.21s4.34-1.53,3.45-3.4c2.2,1.34,3.24,4.22,2.68,6.73-.55,2.52-2.53,4.6-4.91,5.59-4.6,1.9-10.39-.48-12.71-4.89s-1.19-10.22,2.28-13.79c3.48-3.57,8.95-4.87,13.8-3.71,7.15,1.71,13,8.67,12.86,16.02-.31,16.36-15.83,22.42-27.83,18.77-8.27-2.52-14.34-10.18-14.72-20.14-.33-8.77,3.22-15.87,9.27-21.85-13.73-14.22,6.3-21.86,13.63-19.35l.03-1.86.61-32.57c.33-.12.88-.36,1.19-.36,1.9,0,.27,2.34,2.45,2.61,1.36.16,2.23-1.2,2.28-2.12.05-1.52-.98-2.66-2.93-2.66-.7,0-1.89.36-2.95.84l.09-4.89c.34-.13.79-.31,1.06-.31,1.9,0,.27,2.34,2.45,2.61,1.36.16,2.23-1.2,2.28-2.12.05-1.52-.98-2.66-2.93-2.66-.67,0-1.8.33-2.82.79v-.79h-5.38l.74,38.63c-10.72,0-22.76,10.97-15.5,21.18.51.85,1.27,1.71,1.56,2.55.1,1.87-1.74,3.4-3.01,4.78-6.68,7.23-9.81,18.21-6.02,27.3,9.96,23.78,51.19,18.78,52.03-8.18.26-7.83-4.1-15.77-11.05-19.35l.01-.02Z" fill="#D97706"/>
</svg>
